<mxfile host="app.diagrams.net" modified="2023-02-28T23:31:03.513Z" agent="5.0 (X11; Linux x86_64) AppleWebKit/537.36 (KHTML, like Gecko) Chrome/109.0.0.0 Safari/537.36" version="20.8.5" etag="BbPWklBzHXSkETzaaR0-" type="github">
  <diagram id="NULziXxtm9b-ApU2x30r" name="Page-1">
    <mxGraphModel dx="1434" dy="807" grid="1" gridSize="10" guides="1" tooltips="1" connect="1" arrows="1" fold="1" page="1" pageScale="1" pageWidth="850" pageHeight="1100" math="0" shadow="0">
      <root>
        <mxCell id="0" />
        <mxCell id="1" parent="0" />
        <mxCell id="VTYpfKR_HIFzY6jdeKgT-8" style="edgeStyle=orthogonalEdgeStyle;rounded=0;orthogonalLoop=1;jettySize=auto;html=1;" edge="1" parent="1" source="VTYpfKR_HIFzY6jdeKgT-4" target="VTYpfKR_HIFzY6jdeKgT-7">
          <mxGeometry relative="1" as="geometry" />
        </mxCell>
        <mxCell id="VTYpfKR_HIFzY6jdeKgT-4" value="" style="strokeColor=#dddddd;shadow=1;strokeWidth=1;rounded=1;absoluteArcSize=1;arcSize=2;" vertex="1" parent="1">
          <mxGeometry x="320" y="530" width="150" height="44" as="geometry" />
        </mxCell>
        <mxCell id="VTYpfKR_HIFzY6jdeKgT-5" value="Frontend&#xa;Platform Services" style="sketch=0;dashed=0;connectable=0;html=1;fillColor=#757575;strokeColor=none;shape=mxgraph.gcp2.frontend_platform_services;part=1;labelPosition=right;verticalLabelPosition=middle;align=left;verticalAlign=middle;spacingLeft=5;fontSize=12;" vertex="1" parent="VTYpfKR_HIFzY6jdeKgT-4">
          <mxGeometry y="0.5" width="32" height="32" relative="1" as="geometry">
            <mxPoint x="5" y="-16" as="offset" />
          </mxGeometry>
        </mxCell>
        <mxCell id="VTYpfKR_HIFzY6jdeKgT-10" style="edgeStyle=orthogonalEdgeStyle;rounded=0;orthogonalLoop=1;jettySize=auto;html=1;" edge="1" parent="1" source="VTYpfKR_HIFzY6jdeKgT-7" target="VTYpfKR_HIFzY6jdeKgT-9">
          <mxGeometry relative="1" as="geometry" />
        </mxCell>
        <mxCell id="VTYpfKR_HIFzY6jdeKgT-7" value="" style="sketch=0;points=[[0,0,0],[0.25,0,0],[0.5,0,0],[0.75,0,0],[1,0,0],[0,1,0],[0.25,1,0],[0.5,1,0],[0.75,1,0],[1,1,0],[0,0.25,0],[0,0.5,0],[0,0.75,0],[1,0.25,0],[1,0.5,0],[1,0.75,0]];outlineConnect=0;fontColor=#232F3E;gradientColor=#FF4F8B;gradientDirection=north;fillColor=#BC1356;strokeColor=#ffffff;dashed=0;verticalLabelPosition=bottom;verticalAlign=top;align=center;html=1;fontSize=12;fontStyle=0;aspect=fixed;shape=mxgraph.aws4.resourceIcon;resIcon=mxgraph.aws4.api_gateway;" vertex="1" parent="1">
          <mxGeometry x="356" y="350" width="78" height="78" as="geometry" />
        </mxCell>
        <mxCell id="VTYpfKR_HIFzY6jdeKgT-19" style="edgeStyle=orthogonalEdgeStyle;rounded=0;orthogonalLoop=1;jettySize=auto;html=1;" edge="1" parent="1" source="VTYpfKR_HIFzY6jdeKgT-9" target="VTYpfKR_HIFzY6jdeKgT-18">
          <mxGeometry relative="1" as="geometry" />
        </mxCell>
        <mxCell id="VTYpfKR_HIFzY6jdeKgT-9" value="" style="outlineConnect=0;dashed=0;verticalLabelPosition=bottom;verticalAlign=top;align=center;html=1;shape=mxgraph.aws3.lambda_function;fillColor=#F58534;gradientColor=none;" vertex="1" parent="1">
          <mxGeometry x="360.5" y="170" width="69" height="72" as="geometry" />
        </mxCell>
        <mxCell id="VTYpfKR_HIFzY6jdeKgT-13" value="Actor" style="shape=umlActor;verticalLabelPosition=bottom;verticalAlign=top;html=1;outlineConnect=0;" vertex="1" parent="1">
          <mxGeometry x="110" y="368" width="30" height="60" as="geometry" />
        </mxCell>
        <mxCell id="VTYpfKR_HIFzY6jdeKgT-17" value="GENERATE TOKEN API" style="rounded=0;whiteSpace=wrap;html=1;" vertex="1" parent="1">
          <mxGeometry x="240.5" y="80" width="120" height="60" as="geometry" />
        </mxCell>
        <mxCell id="VTYpfKR_HIFzY6jdeKgT-20" style="edgeStyle=orthogonalEdgeStyle;rounded=0;orthogonalLoop=1;jettySize=auto;html=1;" edge="1" parent="1" source="VTYpfKR_HIFzY6jdeKgT-18" target="VTYpfKR_HIFzY6jdeKgT-13">
          <mxGeometry relative="1" as="geometry" />
        </mxCell>
        <mxCell id="VTYpfKR_HIFzY6jdeKgT-21" value="RECEIVE TOKEN IN EMAIL" style="edgeLabel;html=1;align=center;verticalAlign=middle;resizable=0;points=[];" vertex="1" connectable="0" parent="VTYpfKR_HIFzY6jdeKgT-20">
          <mxGeometry x="0.2737" y="3" relative="1" as="geometry">
            <mxPoint as="offset" />
          </mxGeometry>
        </mxCell>
        <mxCell id="VTYpfKR_HIFzY6jdeKgT-18" value="" style="sketch=0;points=[[0,0,0],[0.25,0,0],[0.5,0,0],[0.75,0,0],[1,0,0],[0,1,0],[0.25,1,0],[0.5,1,0],[0.75,1,0],[1,1,0],[0,0.25,0],[0,0.5,0],[0,0.75,0],[1,0.25,0],[1,0.5,0],[1,0.75,0]];outlineConnect=0;fontColor=#232F3E;gradientColor=#FF4F8B;gradientDirection=north;fillColor=#BC1356;strokeColor=#ffffff;dashed=0;verticalLabelPosition=bottom;verticalAlign=top;align=center;html=1;fontSize=12;fontStyle=0;aspect=fixed;shape=mxgraph.aws4.resourceIcon;resIcon=mxgraph.aws4.sns;" vertex="1" parent="1">
          <mxGeometry x="150" y="164" width="78" height="78" as="geometry" />
        </mxCell>
        <mxCell id="VTYpfKR_HIFzY6jdeKgT-23" value="" style="dashed=0;outlineConnect=0;html=1;align=center;labelPosition=center;verticalLabelPosition=bottom;verticalAlign=top;shape=mxgraph.weblogos.json_2" vertex="1" parent="1">
          <mxGeometry x="534.8" y="402.79999999999995" width="80.4" height="25.200000000000003" as="geometry" />
        </mxCell>
        <mxCell id="VTYpfKR_HIFzY6jdeKgT-24" value="email: &amp;lt;email to register&amp;gt;" style="rounded=0;whiteSpace=wrap;html=1;" vertex="1" parent="1">
          <mxGeometry x="480" y="440" width="190" height="60" as="geometry" />
        </mxCell>
      </root>
    </mxGraphModel>
  </diagram>
</mxfile>
